<?xml version="1.0" encoding="UTF-8" standalone="no"?>
<!DOCTYPE svg PUBLIC "-//W3C//DTD SVG 1.1//EN" "http://www.w3.org/Graphics/SVG/1.1/DTD/svg11.dtd">
<svg version="1.1" xmlns="http://www.w3.org/2000/svg" xmlns:xlink="http://www.w3.org/1999/xlink" preserveAspectRatio="xMidYMid meet" viewBox="0 0 640 640" width="640" height="640"><defs><path d="M64.45 148.22C55.51 153.4 50 162.95 50 173.29C50 233.67 50 398.55 50 459.04C50 469.04 55.33 478.28 63.98 483.29C116.18 513.53 259.44 596.52 311.8 626.86C319.97 631.58 330.03 631.58 338.2 626.86C390.56 596.52 531.95 514.62 583.69 484.64C593.79 478.8 600 468.01 600 456.35C600 396.4 600 235.71 600 175.84C600 163.92 593.65 152.91 583.35 146.94C531.68 117.01 392.29 36.27 340.36 6.18C330.86 0.68 319.14 0.68 309.64 6.18C257.71 36.27 116.56 118.03 64.45 148.22Z" id="c5uQha9xbM"></path></defs><g><g><g><g><filter id="shadow9533648" x="33" y="-14.94" width="584" height="665.35" filterUnits="userSpaceOnUse" primitiveUnits="userSpaceOnUse"><feFlood></feFlood><feComposite in2="SourceAlpha" operator="in"></feComposite><feGaussianBlur stdDeviation="1.73"></feGaussianBlur><feOffset dx="0" dy="3" result="afterOffset"></feOffset><feFlood flood-color="#000000" flood-opacity="0.5"></feFlood><feComposite in2="afterOffset" operator="in"></feComposite><feMorphology operator="dilate" radius="3"></feMorphology><feComposite in2="SourceAlpha" operator="out"></feComposite></filter><path d="M64.45 148.22C55.51 153.4 50 162.95 50 173.29C50 233.67 50 398.55 50 459.04C50 469.04 55.33 478.28 63.98 483.29C116.18 513.53 259.44 596.52 311.8 626.86C319.97 631.58 330.03 631.58 338.2 626.86C390.56 596.52 531.95 514.62 583.69 484.64C593.79 478.8 600 468.01 600 456.35C600 396.4 600 235.71 600 175.84C600 163.92 593.65 152.91 583.35 146.94C531.68 117.01 392.29 36.27 340.36 6.18C330.86 0.68 319.14 0.68 309.64 6.18C257.71 36.27 116.56 118.03 64.45 148.22Z" id="ebwi0GQGw" fill="white" fill-opacity="1" filter="url(#shadow9533648)"></path></g><use xlink:href="#c5uQha9xbM" opacity="1" fill="#ffffff" fill-opacity="1"></use></g></g></g></svg>