<?xml version="1.0" encoding="UTF-8" standalone="no"?>
<!DOCTYPE svg PUBLIC "-//W3C//DTD SVG 1.1//EN" "http://www.w3.org/Graphics/SVG/1.1/DTD/svg11.dtd">
<svg version="1.1" xmlns="http://www.w3.org/2000/svg" xmlns:xlink="http://www.w3.org/1999/xlink" preserveAspectRatio="xMidYMid meet" viewBox="0 0 640 640" width="640" height="640"><defs><path d="M160 0C72.13 0 0 72.13 0 160.51C0 192.46 0 448.05 0 480C0 567.87 72.13 640 160 640C191.95 640 447.54 640 479.49 640C567.87 640 640 567.87 640 479.49C640 447.59 640 192.41 640 160.51C640 72.13 567.87 0 479.49 0C415.59 0 191.95 0 160 0ZM345.4 320L345.4 518.1L269.21 518.1L269.21 320L228.57 320L228.57 238.73L264.13 238.73C264.13 218.01 264.13 206.49 264.13 204.19C264.13 171.68 280.38 120.38 348.95 120.38C353.12 120.38 373.94 120.38 411.43 120.38L411.43 187.94C384.91 187.94 370.18 187.94 367.24 187.94C360.13 187.94 350.48 192.51 350.48 208.25C350.48 210.29 350.48 220.44 350.48 238.73L412.95 238.73L405.84 320L345.4 320Z" id="gWCujwbgR"></path></defs><g><g><g><use xlink:href="#gWCujwbgR" opacity="1" fill="#ffffff" fill-opacity="1"></use><g><use xlink:href="#gWCujwbgR" opacity="1" fill-opacity="0" stroke="#000000" stroke-width="1" stroke-opacity="0"></use></g></g></g></g></svg>