<?xml version="1.0" encoding="UTF-8" standalone="no"?>
<!DOCTYPE svg PUBLIC "-//W3C//DTD SVG 1.1//EN" "http://www.w3.org/Graphics/SVG/1.1/DTD/svg11.dtd">
<svg version="1.1" xmlns="http://www.w3.org/2000/svg" xmlns:xlink="http://www.w3.org/1999/xlink" preserveAspectRatio="xMidYMid meet" viewBox="0 0 640 640" width="640" height="640"><defs><path d="M164.74 642.36C172.04 642.36 190.32 642.36 219.57 642.36C219.57 642.28 219.57 642.22 219.57 642.21C228.63 642.11 235.58 637.04 235.9 628.44C236.72 606.11 236.14 583.73 236.14 562.14C219.96 562.9 204.51 564.93 189.22 564.06C155.53 562.12 129.64 547.74 116.21 514.74C108.25 495.2 96.26 478.48 77.6 467.32C74.12 465.24 71.07 462.16 68.4 459.05C64.91 454.98 65.57 450.8 71.07 449.68C76.63 448.56 82.7 447.77 88.18 448.79C109.7 452.83 124.58 466.33 135.97 484.28C158.5 519.8 193.17 530.67 232.19 514.27C234.36 513.36 237.13 511.14 237.53 509.11C240.68 493.4 246.56 479.05 258.4 466.49C245.23 464.05 233.04 462.25 221.08 459.49C186.64 451.52 155.71 437.18 133.08 408.71C114.62 385.48 106.18 358.3 102.3 329.36C96.23 284.04 101.66 241.61 132.79 205.39C134.36 203.57 135.21 199.82 134.51 197.53C126.72 172.07 127.91 146.81 135.63 121.63C139.7 108.39 140.82 107.73 154.31 109.58C155.14 109.69 155.94 109.9 156.76 110.03C183.82 114.52 207.11 127.62 230.05 141.68C233.14 143.57 237.83 144.75 241.23 143.92C296.01 130.63 350.7 130.68 405.49 143.98C408.67 144.75 412.92 143.65 415.96 142.05C428.43 135.53 440.38 127.96 453 121.77C467.7 114.58 483.18 109.18 499.84 109.48C502.76 109.53 507.27 112.32 508.24 114.9C518.27 141.46 520.39 168.53 512.4 196.18C511.55 199.14 512.82 203.34 514.4 206.25C522.28 220.72 533.3 234.07 538.28 249.42C553.5 296.2 547.95 342.52 527.25 386.48C508.28 426.78 473.09 447.19 431.44 457.73C417.38 461.29 402.97 463.45 387.79 466.43C407.68 487.19 410.79 512.56 410.44 539.11C410.08 566.5 410.17 593.89 410.16 621.29C410.15 634.56 415.94 641.88 426.05 642.31C426.05 642.32 444.94 642.1 482.71 641.63C569.31 640.57 639.12 570.39 639.72 483.79C639.72 483.79 639.72 483.79 639.72 483.79C640.26 311.06 640.6 203.1 640.74 159.92C641.01 71.68 569.55 0 481.32 0C385.05 0 258.51 0 162.83 0C72.91 0 0 72.91 0 162.83C0 258.74 0 382.1 0 477.63C0 568.6 73.75 642.36 164.74 642.36Z" id="aO9ZwJT5Y"></path></defs><g><g><g><g><filter id="shadow9990716" x="-9" y="-9" width="659.74" height="661.36" filterUnits="userSpaceOnUse" primitiveUnits="userSpaceOnUse"><feFlood></feFlood><feComposite in2="SourceAlpha" operator="in"></feComposite><feGaussianBlur stdDeviation="1"></feGaussianBlur><feOffset dx="1" dy="1" result="afterOffset"></feOffset><feFlood flood-color="#000000" flood-opacity="0.5"></feFlood><feComposite in2="afterOffset" operator="in"></feComposite><feMorphology operator="dilate" radius="1"></feMorphology><feComposite in2="SourceAlpha" operator="out"></feComposite></filter><path d="M164.74 642.36C172.04 642.36 190.32 642.36 219.57 642.36C219.57 642.28 219.57 642.22 219.57 642.21C228.63 642.11 235.58 637.04 235.9 628.44C236.72 606.11 236.14 583.73 236.14 562.14C219.96 562.9 204.51 564.93 189.22 564.06C155.53 562.12 129.64 547.74 116.21 514.74C108.25 495.2 96.26 478.48 77.6 467.32C74.12 465.24 71.07 462.16 68.4 459.05C64.91 454.98 65.57 450.8 71.07 449.68C76.63 448.56 82.7 447.77 88.18 448.79C109.7 452.83 124.58 466.33 135.97 484.28C158.5 519.8 193.17 530.67 232.19 514.27C234.36 513.36 237.13 511.14 237.53 509.11C240.68 493.4 246.56 479.05 258.4 466.49C245.23 464.05 233.04 462.25 221.08 459.49C186.64 451.52 155.71 437.18 133.08 408.71C114.62 385.48 106.18 358.3 102.3 329.36C96.23 284.04 101.66 241.61 132.79 205.39C134.36 203.57 135.21 199.82 134.51 197.53C126.72 172.07 127.91 146.81 135.63 121.63C139.7 108.39 140.82 107.73 154.31 109.58C155.14 109.69 155.94 109.9 156.76 110.03C183.82 114.52 207.11 127.62 230.05 141.68C233.14 143.57 237.83 144.75 241.23 143.92C296.01 130.63 350.7 130.68 405.49 143.98C408.67 144.75 412.92 143.65 415.96 142.05C428.43 135.53 440.38 127.96 453 121.77C467.7 114.58 483.18 109.18 499.84 109.48C502.76 109.53 507.27 112.32 508.24 114.9C518.27 141.46 520.39 168.53 512.4 196.18C511.55 199.14 512.82 203.34 514.4 206.25C522.28 220.72 533.3 234.07 538.28 249.42C553.5 296.2 547.95 342.52 527.25 386.48C508.28 426.78 473.09 447.19 431.44 457.73C417.38 461.29 402.97 463.45 387.79 466.43C407.68 487.19 410.79 512.56 410.44 539.11C410.08 566.5 410.17 593.89 410.16 621.29C410.15 634.56 415.94 641.88 426.05 642.31C426.05 642.32 444.94 642.1 482.71 641.63C569.31 640.57 639.12 570.39 639.72 483.79C639.72 483.79 639.72 483.79 639.72 483.79C640.26 311.06 640.6 203.1 640.74 159.92C641.01 71.68 569.55 0 481.32 0C385.05 0 258.51 0 162.83 0C72.91 0 0 72.91 0 162.83C0 258.74 0 382.1 0 477.63C0 568.6 73.75 642.36 164.74 642.36Z" id="cmlVo0g3p" fill="white" fill-opacity="1" filter="url(#shadow9990716)"></path></g><use xlink:href="#aO9ZwJT5Y" opacity="1" fill="#000000" fill-opacity="1"></use><g><use xlink:href="#aO9ZwJT5Y" opacity="1" fill-opacity="0" stroke="#000000" stroke-width="1" stroke-opacity="0"></use></g></g></g></g></svg>