<?xml version="1.0" encoding="UTF-8" standalone="no"?>
<!DOCTYPE svg PUBLIC "-//W3C//DTD SVG 1.1//EN" "http://www.w3.org/Graphics/SVG/1.1/DTD/svg11.dtd">
<svg version="1.1" xmlns="http://www.w3.org/2000/svg" xmlns:xlink="http://www.w3.org/1999/xlink" preserveAspectRatio="xMidYMid meet" viewBox="0 0 640 640" width="640" height="640"><defs><path d="M173.24 0C77.71 0 0 77.71 0 173.24C0 202.59 0 437.41 0 466.76C0 562.28 77.71 640 173.24 640C202.59 640 437.41 640 466.76 640C562.28 640 640 562.28 640 466.76C640 437.41 640 202.59 640 173.24C640 77.71 562.28 0 466.76 0C466.76 0 202.59 0 173.24 0ZM145 320C145 223.51 223.51 145 320 145C416.49 145 494.99 223.51 494.99 320C494.99 416.49 416.49 494.99 320 494.99C223.51 494.99 145 416.49 145 320ZM447.47 134.57C447.47 106.05 470.66 82.85 499.18 82.85C527.69 82.85 550.89 106.05 550.89 134.57C550.89 163.08 527.69 186.27 499.18 186.27C470.66 186.27 447.47 163.08 447.47 134.57Z" id="c22kpryHJw"></path><path d="M182.52 320C182.52 395.8 244.2 457.47 320 457.47C395.8 457.47 457.47 395.8 457.47 320C457.47 244.19 395.8 182.52 320 182.52C244.2 182.52 182.52 244.19 182.52 320Z" id="a3WAIh8idS"></path><path d="M484.99 134.57C484.99 142.39 491.36 148.75 499.18 148.75C507.01 148.75 513.37 142.39 513.37 134.57C513.37 126.74 507.01 120.38 499.18 120.38C491.36 120.38 484.99 126.74 484.99 134.57Z" id="c2mEqJLc4v"></path></defs><g><g><g><use xlink:href="#c22kpryHJw" opacity="1" fill="#ffffff" fill-opacity="1"></use><g><use xlink:href="#c22kpryHJw" opacity="1" fill-opacity="0" stroke="#000000" stroke-width="1" stroke-opacity="0"></use></g></g><g><use xlink:href="#a3WAIh8idS" opacity="1" fill="#ffffff" fill-opacity="1"></use><g><use xlink:href="#a3WAIh8idS" opacity="1" fill-opacity="0" stroke="#000000" stroke-width="1" stroke-opacity="0"></use></g></g><g><use xlink:href="#c2mEqJLc4v" opacity="1" fill="#ffffff" fill-opacity="1"></use><g><use xlink:href="#c2mEqJLc4v" opacity="1" fill-opacity="0" stroke="#000000" stroke-width="1" stroke-opacity="0"></use></g></g></g></g></svg>