<?xml version="1.0" encoding="UTF-8" standalone="no"?>
<!DOCTYPE svg PUBLIC "-//W3C//DTD SVG 1.1//EN" "http://www.w3.org/Graphics/SVG/1.1/DTD/svg11.dtd">
<svg version="1.1" xmlns="http://www.w3.org/2000/svg" xmlns:xlink="http://www.w3.org/1999/xlink" preserveAspectRatio="xMidYMid meet" viewBox="0 0 640 640" width="640" height="640"><defs><path d="M160.38 0.25C72.07 0.25 0 72.32 0 160.63C0 192.56 0 447.95 0 479.87C0 567.68 72.07 639.75 160.38 639.75C192.3 639.75 447.7 639.75 479.62 639.75C567.93 639.75 640 567.68 640 479.37C640 447.49 640 192.51 640 160.63C639.49 72.32 567.42 0.25 479.11 0.25C415.37 0.25 192.25 0.25 160.38 0.25ZM121.81 517.94L121.81 254.02L213.16 254.02L213.16 517.94L121.81 517.94ZM120.29 166.72C120.29 140.84 141.09 120.03 166.98 120.03C192.86 120.03 213.67 140.84 213.67 166.72C213.16 192.61 192.36 213.42 166.98 213.42C141.09 213.42 120.29 192.61 120.29 166.72ZM517.68 517.94L441.55 517.94C441.55 441.2 441.55 398.57 441.55 390.04C441.55 359.08 437.49 319.49 395.37 319.49C352.23 319.49 345.12 352.99 345.12 388.01C345.12 396.67 345.12 439.98 345.12 517.94L268.99 517.94L268.99 254.02L340.05 254.02L340.05 289.55C341.27 289.55 341.94 289.55 342.08 289.55C353.24 269.25 379.13 253.51 419.73 253.51C503.47 253.51 518.19 301.73 518.19 373.29C518.19 382.93 518.19 431.15 518.19 517.94L517.68 517.94Z" id="a4rfr1s7G0"></path></defs><g><g><g><use xlink:href="#a4rfr1s7G0" opacity="1" fill="#ffffff" fill-opacity="1"></use><g><use xlink:href="#a4rfr1s7G0" opacity="1" fill-opacity="0" stroke="#000000" stroke-width="1" stroke-opacity="0"></use></g></g></g></g></svg>