<?xml version="1.0" encoding="UTF-8" standalone="no"?>
<!DOCTYPE svg PUBLIC "-//W3C//DTD SVG 1.1//EN" "http://www.w3.org/Graphics/SVG/1.1/DTD/svg11.dtd">
<svg version="1.1" xmlns="http://www.w3.org/2000/svg" xmlns:xlink="http://www.w3.org/1999/xlink" preserveAspectRatio="xMidYMid meet" viewBox="0 0 640 640" width="640" height="640"><defs><path d="M60 60L580 60L580 80L60 80L60 60Z" id="b7JG4sqv"></path><path d="M60 60L80 60L80 580L60 580L60 60Z" id="c6QnDrfBf"></path><path d="M60 560L300 560L300 580L60 580L60 560Z" id="e3kar7QL6"></path><path d="M560 60L580 60L580 300L560 300L560 60Z" id="a8AFNJW1E3"></path><path d="M100 120L380 120L380 160L100 160L100 120Z" id="bdYiHlqMh"></path><path d="M200 140L240 140L240 500L200 500L200 140Z" id="bXM9zLAll"></path><path d="M340 120L380 120L380 500L340 500L340 120Z" id="g5bnbSYaOU"></path><path d="M420 300L540 120L503.19 120L380 300L420 300Z" id="a149ZwWGys"></path><path d="M420 300L540 500L503.19 500L380 300L420 300Z" id="a1GqYK9jQN"></path></defs><g><g><g><use xlink:href="#b7JG4sqv" opacity="1" fill="#000000" fill-opacity="1"></use></g><g><use xlink:href="#c6QnDrfBf" opacity="1" fill="#000000" fill-opacity="1"></use></g><g><use xlink:href="#e3kar7QL6" opacity="1" fill="#000000" fill-opacity="1"></use></g><g><use xlink:href="#a8AFNJW1E3" opacity="1" fill="#000000" fill-opacity="1"></use></g><g><use xlink:href="#bdYiHlqMh" opacity="1" fill="#000000" fill-opacity="1"></use></g><g><use xlink:href="#bXM9zLAll" opacity="1" fill="#000000" fill-opacity="1"></use></g><g><use xlink:href="#g5bnbSYaOU" opacity="1" fill="#000000" fill-opacity="1"></use></g><g><use xlink:href="#a149ZwWGys" opacity="1" fill="#000000" fill-opacity="1"></use><g><use xlink:href="#a149ZwWGys" opacity="1" fill-opacity="0" stroke="#000000" stroke-width="1" stroke-opacity="1"></use></g></g><g><use xlink:href="#a1GqYK9jQN" opacity="1" fill="#000000" fill-opacity="1"></use><g><use xlink:href="#a1GqYK9jQN" opacity="1" fill-opacity="0" stroke="#000000" stroke-width="1" stroke-opacity="1"></use></g></g></g></g></svg>