<?xml version="1.0" encoding="UTF-8" standalone="no"?>
<svg
   xmlns:dc="http://purl.org/dc/elements/1.1/"
   xmlns:cc="http://creativecommons.org/ns#"
   xmlns:rdf="http://www.w3.org/1999/02/22-rdf-syntax-ns#"
   xmlns:svg="http://www.w3.org/2000/svg"
   xmlns="http://www.w3.org/2000/svg"
   xmlns:sodipodi="http://sodipodi.sourceforge.net/DTD/sodipodi-0.dtd"
   xmlns:inkscape="http://www.inkscape.org/namespaces/inkscape"
   version="1.1"
   id="Vulkan"
   x="0px"
   y="0px"
   width="1300"
   height="1300"
   viewBox="0 0 1300 1300"
   overflow="auto"
   xml:space="preserve"
   sodipodi:docname="vulkan2.svg"
   inkscape:version="1.0.2 (e86c870879, 2021-01-15)"><metadata
   id="metadata37"><rdf:RDF><cc:Work
       rdf:about=""><dc:format>image/svg+xml</dc:format><dc:type
         rdf:resource="http://purl.org/dc/dcmitype/StillImage" /><dc:title></dc:title></cc:Work></rdf:RDF></metadata><defs
   id="defs35" /><sodipodi:namedview
   pagecolor="#ffffff"
   bordercolor="#666666"
   borderopacity="1"
   objecttolerance="10"
   gridtolerance="10"
   guidetolerance="10"
   inkscape:pageopacity="0"
   inkscape:pageshadow="2"
   inkscape:window-width="2278"
   inkscape:window-height="1286"
   id="namedview33"
   showgrid="false"
   inkscape:zoom="0.38265355"
   inkscape:cx="535.74967"
   inkscape:cy="233.22952"
   inkscape:window-x="0"
   inkscape:window-y="0"
   inkscape:window-maximized="0"
   inkscape:current-layer="Vulkan" />
<rect
   style="fill:#ffffff"
   id="rect47"
   width="1306.665"
   height="1309.2783"
   x="0"
   y="0" /><g
   id="g26"
   style="fill:#000000"
   transform="matrix(1.237987,0,0,1.4669171,-122.29376,265.65524)">
	<path
   fill="#FFFFFF"
   d="m 724.1,385.06 h -40.57 c 0,0 0,-98.97 0,-129.66 12.96,7.22 30.09,20.54 40.57,33.32 z"
   id="path2"
   style="fill:#000000" />
	<g
   id="g8"
   style="fill:#000000">
		<path
   fill="#FFFFFF"
   d="M 381.75,385.06 H 331.17 L 265.16,181.03 h 46.01 l 45.44,143.45 h 0.57 l 46,-143.45 h 46.29 z"
   id="path4"
   style="fill:#000000" />
		<path
   fill="#FFFFFF"
   d="m 585.51,385.06 h -38.58 v -20.57 h -0.85 c -5.15,8.58 -11.81,14.77 -20.01,18.58 -8.19,3.81 -16.57,5.71 -25.15,5.71 -10.86,0 -19.76,-1.43 -26.72,-4.28 -6.95,-2.85 -12.43,-6.91 -16.43,-12.14 -4.01,-5.24 -6.82,-11.62 -8.44,-19.15 -1.61,-7.52 -2.42,-15.86 -2.42,-25 v -90.88 h 40.58 v 83.44 c 0,12.19 1.91,21.29 5.72,27.29 3.81,6.01 10.57,9 20.29,9 11.05,0 19.05,-3.28 24,-9.86 4.96,-6.58 7.43,-17.39 7.43,-32.44 v -77.44 h 40.59 v 147.74 z"
   id="path6"
   style="fill:#000000" />
	</g>
	<polygon
   fill="#FFFFFF"
   points="730.84,296.19 730.74,290.47 781.89,237.33 829.91,237.33 774.18,291.62 836.19,385.06 787.04,385.06 "
   id="polygon10"
   style="fill:#000000" />
	<path
   fill="#FFFFFF"
   d="m 843.62,282.76 c 0.57,-9.52 2.96,-17.43 7.15,-23.72 4.19,-6.29 9.52,-11.33 16,-15.14 6.48,-3.81 13.77,-6.53 21.87,-8.14 8.09,-1.62 16.24,-2.43 24.43,-2.43 7.43,0 14.95,0.52 22.57,1.57 7.63,1.05 14.57,3.1 20.86,6.15 6.28,3.05 11.43,7.29 15.44,12.71 4,5.43 6,12.62 6,21.58 v 76.87 c 0,6.67 0.38,13.06 1.14,19.15 0.76,6.1 2.1,10.67 4.01,13.72 h -41.15 c -0.76,-2.28 -1.38,-4.62 -1.86,-7 -0.47,-2.38 -0.81,-4.8 -1,-7.29 -6.48,6.68 -14.11,11.34 -22.87,14.01 -8.76,2.66 -17.72,4 -26.86,4 -7.05,0 -13.63,-0.86 -19.71,-2.57 -6.1,-1.71 -11.44,-4.38 -16,-8 -4.58,-3.62 -8.16,-8.19 -10.72,-13.72 -2.57,-5.52 -3.86,-12.09 -3.86,-19.71 0,-8.38 1.48,-15.29 4.43,-20.72 2.96,-5.43 6.76,-9.76 11.44,-13 4.67,-3.24 10,-5.67 16,-7.29 6,-1.62 12.05,-2.91 18.14,-3.86 6.1,-0.94 12.1,-1.71 18.01,-2.28 5.91,-0.57 11.14,-1.43 15.71,-2.57 4.58,-1.15 8.19,-2.81 10.86,-5.01 2.67,-2.19 3.91,-5.38 3.72,-9.57 0,-4.38 -0.72,-7.86 -2.15,-10.43 -1.43,-2.57 -3.33,-4.57 -5.71,-6 -2.38,-1.43 -5.14,-2.38 -8.29,-2.86 -3.15,-0.48 -6.52,-0.72 -10.14,-0.72 -8,0 -14.29,1.71 -18.86,5.15 -4.57,3.43 -7.24,9.14 -8,17.15 h -40.6 z m 93.73,30.01 c -1.72,1.53 -3.86,2.71 -6.43,3.57 -2.57,0.87 -5.33,1.58 -8.29,2.15 -2.95,0.57 -6.05,1.05 -9.28,1.43 -3.24,0.38 -6.48,0.85 -9.72,1.43 -3.05,0.57 -6.05,1.34 -9,2.28 -2.95,0.96 -5.53,2.24 -7.72,3.86 -2.19,1.62 -3.95,3.67 -5.29,6.14 -1.33,2.48 -2,5.62 -2,9.43 0,3.62 0.67,6.67 2,9.14 1.34,2.48 3.15,4.43 5.43,5.86 2.29,1.43 4.95,2.43 8,3 3.05,0.57 6.19,0.85 9.43,0.85 8,0 14.2,-1.33 18.58,-3.99 4.38,-2.67 7.63,-5.86 9.71,-9.58 2.09,-3.71 3.39,-7.47 3.85,-11.28 0.48,-3.81 0.71,-6.86 0.72,-9.14 v -15.15 z"
   id="path12"
   style="fill:#000000" />
	<path
   fill="#FFFFFF"
   d="m 1004.21,237.33 h 38.59 v 20.57 h 0.85 c 5.14,-8.57 11.81,-14.81 20,-18.71 8.19,-3.91 16.58,-5.86 25.14,-5.86 10.87,0 19.77,1.48 26.73,4.43 6.95,2.96 12.42,7.05 16.43,12.29 4,5.24 6.81,11.62 8.43,19.14 1.62,7.53 2.43,15.86 2.43,25.01 v 90.87 h -40.57 v -83.44 c 0,-12.2 -1.91,-21.29 -5.71,-27.29 -3.82,-6 -10.58,-9 -20.3,-9 -11.05,0 -19.04,3.29 -24,9.86 -4.96,6.56 -7.43,17.38 -7.43,32.43 v 77.44 h -40.58 V 237.33 Z"
   id="path14"
   style="fill:#000000" />
	<g
   id="g18"
   style="fill:#000000">
		<path
   fill="#FFFFFF"
   d="m 612.37,211.84 v 173.23 h 40.58 V 234.21 c -13.02,-7.98 -26.59,-15.47 -40.58,-22.37 z"
   id="path16"
   style="fill:#000000" />
	</g>
	<path
   fill="#FFFFFF"
   d="m 198.43,219.21 c 23.52,-68.89 164.15,-94.16 314.15,-56.43 89.97,22.62 163.49,66.5 211.51,109.89 C 702.3,215.12 596.65,133.08 451.18,104.96 286.7,73.16 124.47,101.11 104.39,174.1 89.89,226.83 153.57,288.6 252.05,330.84 207.81,295.02 186.29,254.78 198.43,219.21 Z"
   id="path20"
   style="fill:#000000" />
	<g
   id="g24"
   style="fill:#000000">
		<path
   fill="#FFFFFF"
   d="m 724.16,247.62 v -66.59 h -40.59 v 20.22 c 17.31,15.46 31.04,31.2 40.59,46.37 z"
   id="path22"
   style="fill:#000000" />
	</g>
</g>
<g
   id="g30"
   style="fill:#000000"
   transform="translate(75.129937,505.13094)">
	<path
   fill="#FFFFFF"
   d="m 1214.52,363.68 c 0,12.26 -9.63,21.89 -22.15,21.89 -12.4,0 -22.29,-9.63 -22.29,-21.89 0,-12 9.89,-21.63 22.29,-21.63 12.53,0.01 22.15,9.63 22.15,21.63 z m -38.9,0 c 0,9.63 7.12,17.27 16.88,17.27 9.49,0 16.48,-7.65 16.48,-17.14 0,-9.63 -6.99,-17.41 -16.62,-17.41 -9.62,0.01 -16.74,7.79 -16.74,17.28 z m 13.32,11.34 h -5.01 V 353.4 c 1.98,-0.4 4.75,-0.66 8.31,-0.66 4.09,0 5.93,0.66 7.52,1.58 1.19,0.92 2.11,2.64 2.11,4.75 0,2.37 -1.85,4.22 -4.48,5.01 v 0.26 c 2.11,0.79 3.3,2.37 3.96,5.27 0.66,3.3 1.05,4.62 1.58,5.41 h -5.41 c -0.66,-0.79 -1.05,-2.77 -1.71,-5.27 -0.4,-2.37 -1.71,-3.43 -4.48,-3.43 h -2.37 v 8.7 z m 0.13,-12.26 h 2.37 c 2.77,0 5.01,-0.92 5.01,-3.17 0,-1.98 -1.45,-3.3 -4.62,-3.3 -1.32,0 -2.24,0.13 -2.77,0.26 v 6.21 z"
   id="path28"
   style="fill:#000000" />
</g>
</svg>
